<mxfile host="app.diagrams.net" modified="2023-08-20T09:18:14.668Z" agent="Mozilla/5.0 (Macintosh; Intel Mac OS X 10_15_7) AppleWebKit/537.36 (KHTML, like Gecko) Chrome/116.0.0.0 Safari/537.36" version="21.6.8" etag="0JammDMQb1j6IZmRuHIc" type="github">
  <diagram name="Page-1" id="0rpVSevKH5WaWYjGf4j1">
    <mxGraphModel>
      <root>
        <mxCell id="0" />
        <mxCell id="1" parent="0" />
      </root>
    </mxGraphModel>
  </diagram>
</mxfile>
